<svg xmlns="http://www.w3.org/2000/svg" width="26" height="24" viewBox="0 0 26 24">
    <defs>
        <linearGradient id="a" x1="50%" x2="50%" y1="0%" y2="100%">
            <stop offset="0%" stop-color="#6BB866"/>
            <stop offset="100%" stop-color="#1E8C17"/>
        </linearGradient>
        <radialGradient id="b" cy="0%" r="100%" fx="50%" fy="0%" gradientTransform="matrix(0 1 -.97687 0 .5 -.5)">
            <stop offset="0%" stop-color="#EB1F4A"/>
            <stop offset="100%" stop-color="#C22747"/>
        </radialGradient>
        <linearGradient id="c" x1="22.692%" y1="50%" y2="50%">
            <stop offset="0%" stop-opacity=".3"/>
            <stop offset="100%" stop-opacity="0"/>
        </linearGradient>
        <radialGradient id="d" cy="0%" r="100%" fx="50%" fy="0%" gradientTransform="matrix(0 1 -.97694 0 .5 -.5)">
            <stop offset="0%" stop-color="#EB1F4A"/>
            <stop offset="100%" stop-color="#C22747"/>
        </radialGradient>
    </defs>
    <g fill="none" fill-rule="evenodd">
        <path fill="url(#a)" d="M14.803 6.382l2.764 2.7a.886.886 0 0 0 .623.252.886.886 0 0 0 .623-.252.846.846 0 0 0 0-1.217L12.48 1.678a.896.896 0 0 0-1.246 0 .847.847 0 0 0 0 1.217l2.323 2.27-3.645 3.56a.847.847 0 0 0 0 1.218.89.89 0 0 0 .623.252.89.89 0 0 0 .623-.252l3.645-3.56z"/>
        <path fill="url(#a)" d="M14.803 6.382l2.764 2.7a.886.886 0 0 0 .623.252.886.886 0 0 0 .623-.252.846.846 0 0 0 0-1.217L12.48 1.678a.896.896 0 0 0-1.246 0 .847.847 0 0 0 0 1.217l2.323 2.27-3.645 3.56a.847.847 0 0 0 0 1.218.89.89 0 0 0 .623.252.89.89 0 0 0 .623-.252l3.645-3.56z" opacity=".8" style="mix-blend-mode:multiply"/>
        <path fill="url(#a)" d="M7.995 4.946c-1.603 0-3.152-.775-4.606-2.306a.636.636 0 0 1 .016-.895c1.382-1.354 5.06-3.108 9.09-.054a.636.636 0 0 1 .119.904c-.073.092-1.79 2.23-4.396 2.346a5.721 5.721 0 0 1-.223.005"/>
        <path fill="url(#a)" d="M4.857 2.25c1.084.977 2.186 1.446 3.292 1.402 1.307-.056 2.365-.826 2.943-1.355-2.906-1.844-5.24-.73-6.235-.048" opacity=".5" style="mix-blend-mode:multiply"/>
        <path fill="#9E0021" d="M25.846 15.467c0-4.24-3.518-7.675-7.856-7.675-4.34 0-7.857 3.436-7.857 7.675 0 4.24 3.517 7.675 7.857 7.675 4.338 0 7.856-3.436 7.856-7.675"/>
        <path d="M11.555 15.467c0 3.471 2.881 6.285 6.435 6.285 3.552 0 6.433-2.814 6.433-6.285s-2.881-6.286-6.433-6.286c-3.554 0-6.435 2.815-6.435 6.286"/>
        <path fill="url(#b)" d="M24.423 15.467c0-3.471-2.881-6.285-6.433-6.285-3.554 0-6.435 2.814-6.435 6.285s2.881 6.285 6.435 6.285c3.552 0 6.433-2.814 6.433-6.285"/>
        <path fill="url(#c)" d="M24.423 15.467c0-3.471-2.881-6.285-6.433-6.285-3.554 0-6.435 2.814-6.435 6.285s2.881 6.285 6.435 6.285c3.552 0 6.433-2.814 6.433-6.285"/>
        <path fill="#FFF" d="M17.819 11.069c0 .27.209.498.484.528 1.954.218 3.505 1.733 3.726 3.642a.54.54 0 0 0 .542.473c.323 0 .58-.273.543-.586-.276-2.409-2.23-4.317-4.695-4.588a.54.54 0 0 0-.6.53" opacity=".4"/>
        <path fill="#9E0021" d="M15.713 15.467c0-4.24-3.518-7.675-7.856-7.675C3.517 7.792 0 11.228 0 15.467c0 4.24 3.517 7.675 7.857 7.675 4.338 0 7.856-3.436 7.856-7.675"/>
        <path fill="url(#d)" d="M1.485 15.467c0 3.438 2.853 6.225 6.372 6.225 3.52 0 6.37-2.787 6.37-6.225 0-3.438-2.85-6.225-6.37-6.225-3.519 0-6.372 2.787-6.372 6.225"/>
        <path fill="#FFF" d="M7.688 11.111a.53.53 0 0 0 .48.524c1.934.216 3.47 1.716 3.69 3.606.03.267.26.469.536.469.32 0 .574-.27.538-.581-.273-2.386-2.208-4.276-4.65-4.544a.535.535 0 0 0-.594.526" opacity=".4"/>
    </g>
</svg>
